HIERARCHY
ROOT Hips
{
	OFFSET -0.148888 88.448799 3.733362
	CHANNELS 6 Xposition Yposition Zposition Zrotation Yrotation Xrotation 
	JOINT Spine
	{
		OFFSET 0.000000 8.814246 -2.080107
		CHANNELS 3 Zrotation Yrotation Xrotation
		JOINT Spine1
		{
			OFFSET 0.000000 8.844141 0.000000
			CHANNELS 3 Zrotation Yrotation Xrotation
			JOINT Spine2
			{
				OFFSET -0.000000 11.682268 -0.000000
				CHANNELS 3 Zrotation Yrotation Xrotation
				JOINT Spine3
				{
					OFFSET -0.000000 11.746700 -0.000000
					CHANNELS 3 Zrotation Yrotation Xrotation
					JOINT Neck
					{
						OFFSET 0.000000 17.658264 -0.000000
						CHANNELS 3 Zrotation Yrotation Xrotation
						JOINT Neck1
						{
							OFFSET 0.000000 5.101515 0.000000
							CHANNELS 3 Zrotation Yrotation Xrotation
							JOINT Head
							{
								OFFSET -0.000000 5.101515 -0.000000
								CHANNELS 3 Zrotation Yrotation Xrotation
								JOINT HeadEnd
								{
									OFFSET 0.000000 11.655085 -0.000000
									CHANNELS 3 Zrotation Yrotation Xrotation
									End Site
									{
										OFFSET 0.000000 0.000000 0.000000
									}
								}
							}
						}
					}
					JOINT RightShoulder
					{
						OFFSET -2.625389 11.175210 -0.000000
						CHANNELS 3 Zrotation Yrotation Xrotation
						JOINT RightArm
						{
							OFFSET -0.000000 10.434715 0.000000
							CHANNELS 3 Zrotation Yrotation Xrotation
							JOINT RightForeArm
							{
								OFFSET 0.000000 29.628420 0.000000
								CHANNELS 3 Zrotation Yrotation Xrotation
								JOINT RightHand
								{
									OFFSET 0.000000 22.857611 0.000000
									CHANNELS 3 Zrotation Yrotation Xrotation
									JOINT RightHandThumb1
									{
										OFFSET -2.867323 3.959563 2.944291
										CHANNELS 3 Zrotation Yrotation Xrotation
										JOINT RightHandThumb2
										{
											OFFSET -0.000000 3.350399 0.000000
											CHANNELS 3 Zrotation Yrotation Xrotation
											JOINT RightHandThumb3
											{
												OFFSET -0.000000 3.756509 0.000000
												CHANNELS 3 Zrotation Yrotation Xrotation
												JOINT RightHandThumb4
												{
													OFFSET 0.000000 3.147345 0.000000
													CHANNELS 3 Zrotation Yrotation Xrotation
													End Site
													{
														OFFSET 0.000000 0.000000 0.000000
													}
												}
											}
										}
									}
									JOINT RightHandIndex1
									{
										OFFSET -0.086752 10.030893 2.345280
										CHANNELS 3 Zrotation Yrotation Xrotation
										JOINT RightHandIndex2
										{
											OFFSET 0.000000 4.061090 -0.000000
											CHANNELS 3 Zrotation Yrotation Xrotation
											JOINT RightHandIndex3
											{
												OFFSET -0.000000 3.248873 0.000000
												CHANNELS 3 Zrotation Yrotation Xrotation
												JOINT RightHandIndex4
												{
													OFFSET 0.000000 2.639709 -0.000000
													CHANNELS 3 Zrotation Yrotation Xrotation
													End Site
													{
														OFFSET 0.000000 0.000000 0.000000
													}
												}
											}
										}
									}
									JOINT RightHandMiddle1
									{
										OFFSET 0.104102 9.502952 0.006768
										CHANNELS 3 Zrotation Yrotation Xrotation
										JOINT RightHandMiddle2
										{
											OFFSET 0.000000 4.568727 0.000000
											CHANNELS 3 Zrotation Yrotation Xrotation
											JOINT RightHandMiddle3
											{
												OFFSET 0.000000 3.654981 -0.000000
												CHANNELS 3 Zrotation Yrotation Xrotation
												JOINT RightHandMiddle4
												{
													OFFSET -0.000000 2.741236 0.000000
													CHANNELS 3 Zrotation Yrotation Xrotation
													End Site
													{
														OFFSET 0.000000 0.000000 0.000000
													}
												}
											}
										}
									}
									JOINT RightHandRing1
									{
										OFFSET 0.086752 8.921708 -2.267442
										CHANNELS 3 Zrotation Yrotation Xrotation
										JOINT RightHandRing2
										{
											OFFSET -0.000000 4.061090 0.000000
											CHANNELS 3 Zrotation Yrotation Xrotation
											JOINT RightHandRing3
											{
												OFFSET -0.000000 3.654981 0.000000
												CHANNELS 3 Zrotation Yrotation Xrotation
												JOINT RightHandRing4
												{
													OFFSET -0.000000 2.741236 0.000000
													CHANNELS 3 Zrotation Yrotation Xrotation
													End Site
													{
														OFFSET 0.000000 0.000000 0.000000
													}
												}
											}
										}
									}
									JOINT RightHandPinky1
									{
										OFFSET -0.173504 7.976997 -4.467199
										CHANNELS 3 Zrotation Yrotation Xrotation
										JOINT RightHandPinky2
										{
											OFFSET -0.000000 3.350399 0.000000
											CHANNELS 3 Zrotation Yrotation Xrotation
											JOINT RightHandPinky3
											{
												OFFSET -0.000000 2.842763 0.000000
												CHANNELS 3 Zrotation Yrotation Xrotation
												JOINT RightHandPinky4
												{
													OFFSET 0.000000 2.639709 -0.000000
													CHANNELS 3 Zrotation Yrotation Xrotation
													End Site
													{
														OFFSET 0.000000 0.000000 0.000000
													}
												}
											}
										}
									}
									JOINT RightForeArmEnd
									{
										OFFSET 0.000000 0.000000 0.000000
										CHANNELS 3 Zrotation Yrotation Xrotation
										End Site
										{
											OFFSET 0.000000 0.000000 0.000000
										}
									}
								}
								JOINT RightArmEnd
								{
									OFFSET 0.000000 0.000000 0.000000
									CHANNELS 3 Zrotation Yrotation Xrotation
									End Site
									{
										OFFSET 0.000000 0.000000 0.000000
									}
								}
							}
						}
					}
					JOINT LeftShoulder
					{
						OFFSET 2.625389 11.175210 0.000000
						CHANNELS 3 Zrotation Yrotation Xrotation
						JOINT LeftArm
						{
							OFFSET -0.000000 10.813635 -0.000000
							CHANNELS 3 Zrotation Yrotation Xrotation
							JOINT LeftForeArm
							{
								OFFSET 0.000000 28.724781 0.000000
								CHANNELS 3 Zrotation Yrotation Xrotation
								JOINT LeftHand
								{
									OFFSET 0.644384 25.716167 -0.328871
									CHANNELS 3 Zrotation Yrotation Xrotation
									JOINT LeftHandThumb1
									{
										OFFSET 2.867323 3.959563 2.944291
										CHANNELS 3 Zrotation Yrotation Xrotation
										JOINT LeftHandThumb2
										{
											OFFSET 0.000000 3.350399 -0.000000
											CHANNELS 3 Zrotation Yrotation Xrotation
											JOINT LeftHandThumb3
											{
												OFFSET 0.000000 3.756509 0.000000
												CHANNELS 3 Zrotation Yrotation Xrotation
												JOINT LeftHandThumb4
												{
													OFFSET -0.000000 3.100000 0.000000
													CHANNELS 3 Zrotation Yrotation Xrotation
													End Site
													{
														OFFSET 0.000000 0.000000 0.000000
													}
												}
											}
										}
									}
									JOINT LeftHandIndex1
									{
										OFFSET 0.086752 10.030893 2.345280
										CHANNELS 3 Zrotation Yrotation Xrotation
										JOINT LeftHandIndex2
										{
											OFFSET -0.000000 4.061090 0.000000
											CHANNELS 3 Zrotation Yrotation Xrotation
											JOINT LeftHandIndex3
											{
												OFFSET 0.000000 3.248873 0.000000
												CHANNELS 3 Zrotation Yrotation Xrotation
												JOINT LeftHandIndex4
												{
													OFFSET -0.000000 2.639709 -0.000000
													CHANNELS 3 Zrotation Yrotation Xrotation
													End Site
													{
														OFFSET 0.000000 0.000000 0.000000
													}
												}
											}
										}
									}
									JOINT LeftHandMiddle1
									{
										OFFSET -0.104102 9.502952 0.006768
										CHANNELS 3 Zrotation Yrotation Xrotation
										JOINT LeftHandMiddle2
										{
											OFFSET -0.000000 4.568727 -0.000000
											CHANNELS 3 Zrotation Yrotation Xrotation
											JOINT LeftHandMiddle3
											{
												OFFSET 0.000000 3.654981 0.000000
												CHANNELS 3 Zrotation Yrotation Xrotation
												JOINT LeftHandMiddle4
												{
													OFFSET 0.000000 2.741236 0.000000
													CHANNELS 3 Zrotation Yrotation Xrotation
													End Site
													{
														OFFSET 0.000000 0.000000 0.000000
													}
												}
											}
										}
									}
									JOINT LeftHandRing1
									{
										OFFSET -0.086752 8.921708 -2.267442
										CHANNELS 3 Zrotation Yrotation Xrotation
										JOINT LeftHandRing2
										{
											OFFSET 0.000000 4.061090 0.000000
											CHANNELS 3 Zrotation Yrotation Xrotation
											JOINT LeftHandRing3
											{
												OFFSET 0.000000 3.654981 0.000000
												CHANNELS 3 Zrotation Yrotation Xrotation
												JOINT LeftHandRing4
												{
													OFFSET -0.000000 2.741236 0.000000
													CHANNELS 3 Zrotation Yrotation Xrotation
													End Site
													{
														OFFSET 0.000000 0.000000 0.000000
													}
												}
											}
										}
									}
									JOINT LeftHandPinky1
									{
										OFFSET 0.173504 7.976997 -4.467199
										CHANNELS 3 Zrotation Yrotation Xrotation
										JOINT LeftHandPinky2
										{
											OFFSET -0.000000 3.350399 -0.000000
											CHANNELS 3 Zrotation Yrotation Xrotation
											JOINT LeftHandPinky3
											{
												OFFSET -0.000000 2.842763 0.000000
												CHANNELS 3 Zrotation Yrotation Xrotation
												JOINT LeftHandPinky4
												{
													OFFSET 0.000000 2.639709 0.000000
													CHANNELS 3 Zrotation Yrotation Xrotation
													End Site
													{
														OFFSET 0.000000 0.000000 0.000000
													}
												}
											}
										}
									}
									JOINT LeftForeArmEnd
									{
										OFFSET 0.000000 0.000000 0.000000
										CHANNELS 3 Zrotation Yrotation Xrotation
										End Site
										{
											OFFSET 0.000000 0.000000 0.000000
										}
									}
								}
								JOINT LeftArmEnd
								{
									OFFSET 0.000000 0.000000 0.000000
									CHANNELS 3 Zrotation Yrotation Xrotation
									End Site
									{
										OFFSET 0.000000 0.000000 0.000000
									}
								}
							}
						}
					}
				}
			}
		}
	}
	JOINT RightUpLeg
	{
		OFFSET -11.289943 -0.000000 -0.000000
		CHANNELS 3 Zrotation Yrotation Xrotation
		JOINT RightLeg
		{
			OFFSET 0.000000 -38.200325 0.000000
			CHANNELS 3 Zrotation Yrotation Xrotation
			JOINT RightFoot
			{
				OFFSET 0.000000 -39.900856 -0.000000
				CHANNELS 3 Zrotation Yrotation Xrotation
				JOINT RightToeBase
				{
					OFFSET 0.000000 0.000000 15.261641
					CHANNELS 3 Zrotation Yrotation Xrotation
					JOINT RightToeBaseEnd
					{
						OFFSET -0.000000 -0.000000 7.370709
						CHANNELS 3 Zrotation Yrotation Xrotation
						End Site
						{
							OFFSET 0.000000 0.000000 0.000000
						}
					}
				}
				JOINT RightLegEnd
				{
					OFFSET 0.000000 0.000000 0.000000
					CHANNELS 3 Zrotation Yrotation Xrotation
					End Site
					{
						OFFSET 0.000000 0.000000 0.000000
					}
				}
			}
			JOINT RightUpLegEnd
			{
				OFFSET 0.000000 0.000000 0.000000
				CHANNELS 3 Zrotation Yrotation Xrotation
				End Site
				{
					OFFSET 0.000000 0.000000 0.000000
				}
			}
		}
	}
	JOINT LeftUpLeg
	{
		OFFSET 11.315661 -0.000000 0.000000
		CHANNELS 3 Zrotation Yrotation Xrotation
		JOINT LeftLeg
		{
			OFFSET -0.000000 -38.200325 -0.000000
			CHANNELS 3 Zrotation Yrotation Xrotation
			JOINT LeftFoot
			{
				OFFSET 0.000000 -39.900856 -0.000000
				CHANNELS 3 Zrotation Yrotation Xrotation
				JOINT LeftToeBase
				{
					OFFSET 0.000000 0.000000 15.261641
					CHANNELS 3 Zrotation Yrotation Xrotation
					JOINT LeftToeBaseEnd
					{
						OFFSET 0.000000 -0.000000 7.539996
						CHANNELS 3 Zrotation Yrotation Xrotation
						End Site
						{
							OFFSET 0.000000 0.000000 0.000000
						}
					}
				}
				JOINT LeftLegEnd
				{
					OFFSET 0.000000 0.000000 0.000000
					CHANNELS 3 Zrotation Yrotation Xrotation
					End Site
					{
						OFFSET 0.000000 0.000000 0.000000
					}
				}
			}
			JOINT LeftUpLegEnd
			{
				OFFSET 0.000000 0.000000 0.000000
				CHANNELS 3 Zrotation Yrotation Xrotation
				End Site
				{
					OFFSET 0.000000 0.000000 0.000000
				}
			}
		}
	}
}
MOTION
Frames: 4
Frame Time: 0.016667
8.601384 86.610428 21.805288 5.795233 12.135256 -14.099543 -1.171998 0.248682 9.350993 -1.199158 0.560279 0.175278 -5.535885 2.519672 12.344529 -4.368004 0.200815 4.501261 5.545069 -7.412895 5.703299 1.186549 -4.699834 -3.405303 2.388624 -1.134669 -18.831816 0.000000 0.000000 0.000000 93.912865 -0.522780 14.054550 61.541988 -39.086842 12.158077 -0.539856 14.132511 29.695179 5.834412 5.094778 -0.894010 12.773846 -2.060716 38.809460 -0.000003 0.000032 -31.258455 0.000033 0.000041 -21.865046 0.000001 0.000003 -0.000033 24.732758 0.063822 -9.584672 16.267807 -0.034469 -0.476347 16.099176 0.009482 -0.443536 -0.000020 0.000030 0.000002 22.952768 -0.012700 -9.186490 15.257860 -0.009664 -0.174745 15.279408 0.006198 -0.160109 -0.000005 -0.000030 0.000011 21.551664 -0.042428 -6.863182 15.469905 0.029885 0.182032 15.497408 -0.001493 0.131180 0.000001 -0.000745 -0.000009 17.469629 -0.244212 -5.547975 14.091648 0.118620 0.471792 13.933679 0.060971 0.364957 -0.000452 -0.000007 0.000012 0.000000 0.000000 0.000000 0.000000 0.000000 0.000000 -89.995636 0.224529 7.252997 -60.776981 25.128559 0.809785 -1.110930 -9.206918 41.434254 2.550710 -12.684670 -18.235168 -11.968743 1.989884 39.174335 -0.000002 -0.000001 -29.032827 -0.000065 -0.000024 -20.362835 0.000148 -0.000020 0.002429 -23.490665 0.080247 -11.123755 -14.756656 -0.045724 0.142005 -15.070453 -0.024377 0.214812 0.000018 -0.000098 0.000011 -21.328129 0.033934 -10.971603 -14.437161 -0.017058 0.065420 -14.464873 -0.003023 0.068016 0.001040 -0.000044 0.000032 -21.717533 -0.002048 -9.612637 -15.452920 0.044247 -0.121321 -15.307348 0.012987 -0.080261 -0.000912 0.000031 0.000002 -20.606766 -0.172782 -8.164422 -14.693065 0.118425 -0.208571 -14.715524 0.054983 -0.227497 0.001355 -0.000002 -0.000036 0.000000 0.000000 0.000000 0.000000 0.000000 0.000000 -21.985483 -7.775689 12.453259 -0.521741 -1.319586 27.435862 12.836378 -23.558340 15.336527 -1.934872 1.125318 -19.025295 0.000000 0.000000 0.000000 0.000000 0.000000 0.000000 0.000000 0.000000 0.000000 -13.001749 -7.940689 11.689285 -0.054776 -0.205735 14.193693 7.833876 8.084674 15.897152 -0.389616 -0.827210 -18.163334 0.000000 0.000000 0.000000 0.000000 0.000000 0.000000 0.000000 0.000000 0.000000 
8.637220 86.629135 21.764811 5.714561 12.120452 -14.144182 -1.121027 0.221988 9.351723 -1.309572 0.575586 0.207134 -5.440710 2.371748 12.399710 -4.386398 0.167989 4.553634 5.577765 -7.511778 5.796767 1.193345 -4.732916 -3.363775 2.399530 -1.159405 -18.939833 0.000000 0.000000 0.000000 93.846870 -0.518693 14.061090 61.231270 -39.010834 12.310756 -0.566778 14.318887 29.972063 6.283886 5.006504 -0.600708 12.798447 -2.065564 38.789776 -0.000003 0.000032 -31.337132 0.000033 0.000041 -21.925276 -0.000000 0.000003 -0.000034 25.065348 0.066662 -9.587403 16.427832 -0.042073 -0.460367 16.249777 0.001181 -0.429339 -0.000020 0.000031 0.000002 23.270996 -0.012749 -9.187628 15.404581 -0.012747 -0.169431 15.432890 0.003771 -0.155901 -0.000006 -0.000024 0.000011 21.861624 -0.043355 -6.851032 15.603522 0.035746 0.173040 15.636575 0.002151 0.125139 0.000002 -0.000685 -0.000009 17.740231 -0.247336 -5.491688 14.210340 0.136281 0.441780 14.049986 0.075597 0.344965 -0.000471 -0.000007 0.000014 0.000000 0.000000 0.000000 0.000000 0.000000 0.000000 -89.880753 0.191420 7.362238 -60.598938 25.443789 1.174351 -1.154879 -9.228108 41.166744 2.179302 -13.092109 -18.114210 -12.023519 1.995699 39.143692 -0.000001 -0.000001 -29.173044 -0.000055 -0.000025 -20.459789 0.000169 -0.000019 0.002462 -23.713903 0.080005 -11.116408 -14.867970 -0.048639 0.151459 -15.165311 -0.026608 0.223377 0.000019 -0.000139 0.000011 -21.569220 0.034073 -10.947498 -14.543968 -0.018243 0.069810 -14.572948 -0.003707 0.070820 0.000978 -0.000044 0.000030 -21.990114 -0.003356 -9.544950 -15.559625 0.047285 -0.123259 -15.412328 0.014383 -0.082614 -0.000920 0.000031 0.000002 -20.913727 -0.176705 -8.062464 -14.800350 0.126733 -0.208127 -14.813797 0.061648 -0.228458 0.001311 -0.000001 -0.000035 0.000000 0.000000 0.000000 0.000000 0.000000 0.000000 -21.915352 -7.883989 12.503990 -0.518049 -1.311637 27.257059 12.793991 -23.747311 15.545118 -1.935782 1.109884 -19.064657 0.000000 0.000000 0.000000 0.000000 0.000000 0.000000 0.000000 0.000000 0.000000 -13.002424 -7.912831 11.642929 -0.055529 -0.205745 14.162830 7.939868 7.988106 15.964209 -0.399108 -0.803906 -18.187742 0.000000 0.000000 0.000000 0.000000 0.000000 0.000000 0.000000 0.000000 0.000000 
8.669618 86.650070 21.723192 5.633102 12.081553 -14.188973 -1.070399 0.193461 9.354712 -1.411941 0.589113 0.236360 -5.350635 2.225555 12.463229 -4.399397 0.134918 4.601189 5.606954 -7.577915 5.904123 1.197337 -4.741824 -3.312014 2.398433 -1.180193 -19.037062 0.000000 0.000000 0.000000 93.778809 -0.516211 14.076432 60.937893 -38.950665 12.510311 -0.590105 14.508292 30.160444 6.700903 4.943010 -0.331027 12.793665 -2.068527 38.783089 -0.000003 0.000031 -31.344894 0.000033 0.000041 -21.935463 -0.000001 0.000003 -0.000034 25.257011 0.069310 -9.561198 16.507227 -0.051979 -0.436371 16.321760 -0.009558 -0.407993 -0.000020 0.000031 0.000002 23.446280 -0.012747 -9.175062 15.469156 -0.016836 -0.160980 15.505189 0.000503 -0.149081 -0.000007 -0.000017 0.000011 22.036551 -0.043966 -6.836899 15.657914 0.043199 0.160181 15.696453 0.006980 0.116239 0.000002 -0.000625 -0.000009 17.903580 -0.248801 -5.450368 14.260530 0.157598 0.403102 14.099575 0.093199 0.317837 -0.000476 -0.000007 0.000016 0.000000 0.000000 0.000000 0.000000 0.000000 0.000000 -89.781868 0.159354 7.474548 -60.429420 25.760509 1.529916 -1.198538 -9.224011 40.897053 1.846113 -13.604460 -17.960337 -12.064299 2.000627 39.119198 -0.000001 -0.000001 -29.283802 -0.000045 -0.000026 -20.534290 0.000194 -0.000018 0.002490 -23.871803 0.079491 -11.115219 -14.953517 -0.052653 0.156022 -15.234558 -0.029968 0.227705 0.000020 -0.000193 0.000011 -21.754219 0.034069 -10.932583 -14.624238 -0.019849 0.072065 -14.653885 -0.004787 0.071969 0.000913 -0.000045 0.000028 -22.229849 -0.004321 -9.484709 -15.644882 0.050955 -0.122595 -15.494545 0.016277 -0.083057 -0.000934 0.000031 0.000002 -21.201490 -0.178982 -7.966790 -14.897886 0.136538 -0.201721 -14.899925 0.069735 -0.224293 0.001269 -0.000001 -0.000035 0.000000 0.000000 0.000000 0.000000 0.000000 0.000000 -21.835028 -7.981045 12.541737 -0.514573 -1.304789 27.070473 12.753256 -23.912043 15.747540 -1.936910 1.092911 -19.105186 0.000000 0.000000 0.000000 0.000000 0.000000 0.000000 0.000000 0.000000 0.000000 -12.996469 -7.862992 11.618342 -0.056640 -0.204356 14.091674 8.039723 7.901823 16.034040 -0.405185 -0.781090 -18.206598 0.000000 0.000000 0.000000 0.000000 0.000000 0.000000 0.000000 0.000000 0.000000 
8.697854 86.672348 21.680077 5.552763 12.016205 -14.232106 -1.019626 0.164377 9.360785 -1.500925 0.600840 0.261909 -5.268012 2.090837 12.533174 -4.410962 0.105292 4.642790 5.636553 -7.620286 6.010804 1.197596 -4.738341 -3.257558 2.389508 -1.196525 -19.118711 0.000000 0.000000 0.000000 93.706673 -0.516218 14.108149 60.658123 -38.923653 12.762668 -0.608636 14.694832 30.246777 7.039838 4.899336 -0.121266 12.762373 -2.069461 38.788750 -0.000003 0.000031 -31.288092 0.000033 0.000042 -21.899572 -0.000002 0.000003 -0.000034 25.310492 0.071427 -9.505979 16.510687 -0.063370 -0.406305 16.320015 -0.021866 -0.381060 -0.000020 0.000031 0.000002 23.478676 -0.012760 -9.148833 15.455385 -0.021622 -0.150058 15.500382 -0.003335 -0.140123 -0.000007 -0.000010 0.000011 22.065657 -0.044272 -6.820392 15.633703 0.051676 0.143944 15.677217 0.012634 0.104773 0.000002 -0.000564 -0.000009 17.946280 -0.248679 -5.423223 14.240154 0.181187 0.356350 14.080858 0.112662 0.283974 -0.000467 -0.000007 0.000019 0.000000 0.000000 0.000000 0.000000 0.000000 0.000000 -89.705025 0.130178 7.590411 -60.259899 26.076954 1.856994 -1.235644 -9.189795 40.648357 1.588122 -14.174398 -17.794321 -12.089450 2.004511 39.101990 -0.000000 -0.000000 -29.360079 -0.000034 -0.000027 -20.582348 0.000233 -0.000017 0.002504 -23.955517 0.078713 -11.123409 -15.007883 -0.057583 0.154669 -15.273677 -0.034305 0.226913 0.000021 -0.000260 0.000010 -21.870026 0.033928 -10.930264 -14.672639 -0.021797 0.071790 -14.702604 -0.006207 0.071176 0.000854 -0.000045 0.000025 -22.414961 -0.004788 -9.437337 -15.703244 0.055174 -0.119048 -15.548916 0.018596 -0.081335 -0.000950 0.000031 0.000001 -21.443409 -0.179229 -7.882401 -14.979227 0.147484 -0.188420 -14.967875 0.078962 -0.214239 0.001229 -0.000001 -0.000034 0.000000 0.000000 0.000000 0.000000 0.000000 0.000000 -21.748735 -8.063974 12.561682 -0.511446 -1.299138 26.880838 12.713739 -24.046824 15.945159 -1.938619 1.074877 -19.147486 0.000000 0.000000 0.000000 0.000000 0.000000 0.000000 0.000000 0.000000 0.000000 -12.983821 -7.789576 11.612902 -0.057974 -0.201682 13.988645 8.128457 7.831407 16.102133 -0.408431 -0.760104 -18.220549 0.000000 0.000000 0.000000 0.000000 0.000000 0.000000 0.000000 0.000000 0.000000 
